<mxfile host="app.diagrams.net" modified="2023-12-04T03:43:01.611Z" agent="Mozilla/5.0 (Macintosh; Intel Mac OS X 10_15_7) AppleWebKit/537.36 (KHTML, like Gecko) Chrome/119.0.0.0 Safari/537.36" etag="yrQdvRKCQp1M4yeYx4WG" version="22.1.5" type="github">
  <diagram name="Page-1" id="MSWnguEy0Gy0kYiF5g5j">
    <mxGraphModel dx="661" dy="456" grid="1" gridSize="10" guides="1" tooltips="1" connect="1" arrows="1" fold="1" page="1" pageScale="1" pageWidth="850" pageHeight="1100" math="0" shadow="0">
      <root>
        <mxCell id="0" />
        <mxCell id="1" parent="0" />
        <mxCell id="Gc6vKW3gHGHivC82JK1f-1" value="" style="ellipse;whiteSpace=wrap;html=1;aspect=fixed;" vertex="1" parent="1">
          <mxGeometry x="300" y="80" width="200" height="200" as="geometry" />
        </mxCell>
        <mxCell id="Gc6vKW3gHGHivC82JK1f-3" value="" style="ellipse;whiteSpace=wrap;html=1;aspect=fixed;" vertex="1" parent="1">
          <mxGeometry x="360" y="120" width="140" height="140" as="geometry" />
        </mxCell>
      </root>
    </mxGraphModel>
  </diagram>
</mxfile>
